<svg width="310" height="310" viewBox="0 0 310 310" fill="none" xmlns="http://www.w3.org/2000/svg">
<path fill-rule="evenodd" clip-rule="evenodd" d="M0 155C0 69.3959 69.3959 0 155 0C240.604 0 310 69.3959 310 155C310 240.604 240.604 310 155 310C69.3959 310 0 240.604 0 155ZM174.951 253.736H147.44C145.191 253.736 143.535 253.262 142.47 252.316C141.523 251.251 141.05 249.594 141.05 247.346V192H118.709C103.918 192 92.914 189.042 85.6961 183.125C78.5964 177.209 75.0466 168.098 75.0466 155.792V100.592C75.0466 88.2865 78.5964 79.1753 85.6961 73.259C92.914 67.2243 103.918 64.207 118.709 64.207H162.017C164.265 64.207 165.863 64.7394 166.809 65.8044C167.874 66.751 168.407 68.3484 168.407 70.5966V92.073C168.407 94.3212 167.874 95.9777 166.809 97.0427C165.863 97.9893 164.265 98.4626 162.017 98.4626H126.341C122.673 98.4626 119.952 99.2317 118.177 100.77C116.402 102.19 115.514 104.379 115.514 107.337V149.58C115.514 152.538 116.402 154.727 118.177 156.147C119.952 157.449 122.673 158.099 126.341 158.099H141.05V132.332C141.05 130.084 141.523 128.487 142.47 127.54C143.535 126.475 145.191 125.943 147.44 125.943H201.752C217.844 125.943 228.848 129.138 234.765 135.527C240.681 141.917 243.639 150.259 243.639 160.553V183.272C243.639 193.567 240.681 201.909 234.765 208.298C228.848 214.688 217.844 217.883 201.752 217.883H181.34V247.346C181.34 249.594 180.808 251.251 179.743 252.316C178.796 253.262 177.199 253.736 174.951 253.736ZM180.985 159.133V185.934H196.959C200.391 185.934 202.639 185.047 203.704 183.272C204.769 181.497 205.301 179.486 205.301 177.237V167.83C205.301 165.582 204.769 163.571 203.704 161.796C202.639 160.021 200.391 159.133 196.959 159.133H180.985Z" fill="white"/>
</svg>
